<?xml version="1.0" encoding="UTF-8"?>
<svg xmlns="http://www.w3.org/2000/svg" width="640" height="220" viewBox="0 0 640 220" role="img" aria-label="Clinical decision spine">
  <defs>
    <marker id="ah" markerWidth="8" markerHeight="8" refX="6" refY="3" orient="auto">
      <path d="M0,0 L6,3 L0,6 Z" fill="#2f6f5e"/>
    </marker>
  </defs>
  <rect width="100%" height="100%" fill="#f7faf8"/>
  <rect x="1" y="1" width="638" height="218" fill="none" stroke="#c5d4cb" stroke-width="1"/>
  
      <text x="24" y="28" font-family="Georgia, serif" font-size="16" font-weight="700" fill="#1a3a2f">Ward/clinic decision spine</text>
      <rect x="15" y="90" width="100" height="45" rx="6" fill="#e3eee8" stroke="#2f6f5e" stroke-width="1.5"/>
  <text x="65" y="112.5" text-anchor="middle" font-family="Georgia, serif" font-size="12" fill="#1a3a2f">Syndrome</text>
      <line x1="115" y1="112" x2="135" y2="112" stroke="#2f6f5e" stroke-width="2" marker-end="url(#ah)"/>
  
      <rect x="135" y="90" width="110" height="45" rx="6" fill="#e3eee8" stroke="#2f6f5e" stroke-width="1.5"/>
  <text x="190" y="112.5" text-anchor="middle" font-family="Georgia, serif" font-size="12" fill="#1a3a2f">Can't-miss</text>
      <line x1="245" y1="112" x2="265" y2="112" stroke="#2f6f5e" stroke-width="2" marker-end="url(#ah)"/>
  
      <rect x="265" y="90" width="100" height="45" rx="6" fill="#e3eee8" stroke="#2f6f5e" stroke-width="1.5"/>
  <text x="315" y="112.5" text-anchor="middle" font-family="Georgia, serif" font-size="12" fill="#1a3a2f">Data</text>
      <line x1="365" y1="112" x2="385" y2="112" stroke="#2f6f5e" stroke-width="2" marker-end="url(#ah)"/>
  
      <rect x="385" y="90" width="100" height="45" rx="6" fill="#f3e8df" stroke="#2f6f5e" stroke-width="1.5"/>
  <text x="435" y="112.5" text-anchor="middle" font-family="Georgia, serif" font-size="12" fill="#1a3a2f">Therapy</text>
      <line x1="485" y1="112" x2="505" y2="112" stroke="#2f6f5e" stroke-width="2" marker-end="url(#ah)"/>
  
      <rect x="505" y="90" width="120" height="45" rx="6" fill="#e3eee8" stroke="#2f6f5e" stroke-width="1.5"/>
  <text x="565" y="112.5" text-anchor="middle" font-family="Georgia, serif" font-size="12" fill="#1a3a2f">Reassess</text>
    
</svg>